<?xml version="1.0" encoding="UTF-8" standalone="no"?>
<svg
   xmlns:dc="http://purl.org/dc/elements/1.1/"
   xmlns:cc="http://creativecommons.org/ns#"
   xmlns:rdf="http://www.w3.org/1999/02/22-rdf-syntax-ns#"
   xmlns:svg="http://www.w3.org/2000/svg"
   xmlns="http://www.w3.org/2000/svg"
   xmlns:sodipodi="http://sodipodi.sourceforge.net/DTD/sodipodi-0.dtd"
   xmlns:inkscape="http://www.inkscape.org/namespaces/inkscape"
   height="49.204906"
   id="Layer_1"
   version="1.1"
   viewBox="0 0 48.218524 49.204905"
   width="48.218525"
   xml:space="preserve"
   sodipodi:docname="googleIcon.svg"
   inkscape:version="0.92.4 (5da689c313, 2019-01-14)"><metadata
     id="metadata831"><rdf:RDF><cc:Work
         rdf:about=""><dc:format>image/svg+xml</dc:format><dc:type
           rdf:resource="http://purl.org/dc/dcmitype/StillImage" /><dc:title></dc:title></cc:Work></rdf:RDF></metadata><defs
     id="defs829" /><sodipodi:namedview
     pagecolor="#ffffff"
     bordercolor="#666666"
     borderopacity="1"
     objecttolerance="10"
     gridtolerance="10"
     guidetolerance="10"
     inkscape:pageopacity="0"
     inkscape:pageshadow="2"
     inkscape:window-width="1920"
     inkscape:window-height="1017"
     id="namedview827"
     showgrid="false"
     inkscape:zoom="14.992927"
     inkscape:cx="24.119486"
     inkscape:cy="25.346499"
     inkscape:window-x="-8"
     inkscape:window-y="-8"
     inkscape:window-maximized="1"
     inkscape:current-layer="Layer_1" /><path
     d="m 47.753786,19.992908 c -7.7173,-0.0038 -15.4346,-0.0019 -23.1518,-0.001 0.001,3.2009 -0.0038,6.4018 0.0019,9.6017 4.4693,-0.001 8.9386,-0.0019 13.407,0 -0.5179,3.0673 -2.3408,5.8723 -4.9258,7.5991 -1.625,1.0926 -3.492,1.8018 -5.4168,2.139 -1.9372,0.3306 -3.9389,0.3729 -5.8713,-0.0183 -1.9651,-0.3921 -3.8409,-1.2108 -5.4773,-2.3649 -2.6166,-1.8383 -4.6135,-4.5279 -5.6388,-7.5549 -1.0484003,-3.0788 -1.0561003,-6.5046 0.0048,-9.5805 0.7361,-2.1679 1.9613,-4.1705 3.5708,-5.8002 1.9853,-2.0324 4.5664,-3.4853 7.3473,-4.0810999 2.3812,-0.5083 4.8921,-0.4113 7.2234,0.2939999 1.9815,0.6016 3.8082,1.6874 5.3044,3.1163 1.5125,-1.5039 3.0173,-3.0164 4.527,-4.5230999 0.7918,-0.811 1.624,-1.5865 2.3908,-2.4196 -2.2928,-2.1218 -4.9805,-3.8274 -7.9172,-4.9056 -5.2871,-1.9458 -11.2497,-1.9871 -16.5723,-0.1449 -5.9982,2.0535 -11.1056003,6.5391 -13.9374003,12.2086999 -0.9859,1.9536 -1.70570003,4.0388 -2.13810003,6.1836 -1.0878,5.3437 -0.3296,11.0412 2.13520003,15.9083 1.6019,3.1768 3.8985,6.001 6.6843,8.215 2.6282003,2.0958 5.6916003,3.6439 8.9396003,4.5078 4.0984,1.0993 8.461,1.0743 12.5864,0.1355 3.7284,-0.8581 7.256,-2.6397 10.0725,-5.24 2.977,-2.7358 5.1006,-6.3403 6.2249,-10.2138 1.2262,-4.2252 1.3953,-8.7359 0.6265,-13.0611 z"
     id="path824"
     inkscape:connector-curvature="0"
     style="fill:#ffffff;fill-opacity:1" /></svg>